<svg 
          width="24.998170852661133" 
          height="25.00244140625" fill="none" 
          xmlns="http://www.w3.org/2000/svg">
          <path d="M 24.658202360677514 21.61621204886678 L 19.790037853028018 16.748047274265573 C 19.57031129733881 16.528320706527396 19.272459748727837 16.406250391117297 18.959959753757687 16.406250391117297 L 18.164061936974328 16.406250391117297 C 19.511718163827908 14.682617574779604 20.312499370379893 12.514648698590438 20.312499370379893 10.156250242120231 C 20.312499370379893 4.545898471366277 15.766601148293466 0 10.156249685189946 0 C 4.545898222086427 0 0 4.545898471366277 0 10.156250242120231 C 0 15.766602012874186 4.545898222086427 20.312500484240463 10.156249685189946 20.312500484240463 C 12.514648012334519 20.312500484240463 14.682616769640484 19.511719233776663 16.406249491460684 18.16406293302272 L 16.406249491460684 18.959960793450104 C 16.406249491460684 19.27246080555657 16.528319800176906 19.5703123705006 16.748046355866112 19.790038938238776 L 21.616210863515608 24.658203712839985 C 22.075195205662165 25.117188080155504 22.817382393946826 25.117188080155504 23.27148395168441 24.658203712839985 L 24.65331925030565 23.276368338444126 C 25.112303592452207 22.817383971128606 25.112303918415098 22.0751964161823 24.658202360677514 21.61621204886678 Z M 10.156249685189946 16.406250391117297 C 6.704101503706702 16.406250391117297 3.90624987891921 13.61328172354585 3.90624987891921 10.156250242120231 C 3.90624987891921 6.704101871334249 6.699218393334839 3.906250093123166 10.156249685189946 3.906250093123166 C 13.60839786667319 3.906250093123166 16.406249491460684 6.699218760694614 16.406249491460684 10.156250242120231 C 16.406249491460684 13.608398612906214 13.613280977045054 16.406250391117297 10.156249685189946 16.406250391117297 Z" fill="rgb(171.06250405311584,171.06250405311584,171.06250405311584)"/>
        </svg>